PathFileType  4	(X/Y/Z) C:\Users\antoi\Documents\MyRepositories\mobilecap\ResultsAnalysis
DataRate	CameraRate	NumFrames	NumMarkers	Units	OrigDataRate	OrigDataStartFrame	OrigNumFrames
100.0	100.0	7	51	mm	100.0	713	1424
Frame#	Time	r_knee			r_shank_antsup			r_ankle			r_calc			r_5meta			r_toe			L_knee			L_shank_antsup			L_ankle			L_calc			L_5meta			L_toe			r_sh2			r_sh3			r_sh4			L_sh2			L_sh3			r_thigh1			r_thigh2			r_thigh3			r_thigh4			r_thigh5			L_thigh1			L_thigh2			L_thigh3			L_thigh4			r.ASIS			r.PSIS			L.ASIS			L.PSIS			C7			R_Shoulder			L_Shoulder			R_Sternum			L_Sternum			R_humerus			R_elbow_med			R_elbow_lat			R_forearm			R_wrist_radius			R_wrist_ulna			L_humerus			L_elbow_med			L_elbow_lat			L_forearm			L_wrist_radius			L_wrist_ulna			R_HJC			L_HJC			R_HJC_reg			L_HJC_reg			
		X1	Y1	Z1	X2	Y2	Z2	X3	Y3	Z3	X4	Y4	Z4	X5	Y5	Z5	X6	Y6	Z6	X7	Y7	Z7	X8	Y8	Z8	X9	Y9	Z9	X10	Y10	Z10	X11	Y11	Z11	X12	Y12	Z12	X13	Y13	Z13	X14	Y14	Z14	X15	Y15	Z15	X16	Y16	Z16	X17	Y17	Z17	X18	Y18	Z18	X19	Y19	Z19	X20	Y20	Z20	X21	Y21	Z21	X22	Y22	Z22	X23	Y23	Z23	X24	Y24	Z24	X25	Y25	Z25	X26	Y26	Z26	X27	Y27	Z27	X28	Y28	Z28	X29	Y29	Z29	X30	Y30	Z30	X31	Y31	Z31	X32	Y32	Z32	X33	Y33	Z33	X34	Y34	Z34	X35	Y35	Z35	X36	Y36	Z36	X37	Y37	Z37	X38	Y38	Z38	X39	Y39	Z39	X40	Y40	Z40	X41	Y41	Z41	X42	Y42	Z42	X43	Y43	Z43	X44	Y44	Z44	X45	Y45	Z45	X46	Y46	Z46	X47	Y47	Z47	X48	Y48	Z48	X49	Y49	Z49	X50	Y50	Z50	X51	Y51	Z51	

713	7.12000000	-310.87190	503.05333	-476.33110	-269.33529	439.95362	-476.07757	-334.39680	100.06527	-429.28748	-397.46193	61.68306	-470.34225	-235.79693	45.03131	-377.35147	-182.34481	69.82864	-428.27283	-298.39416	498.74811	-873.04524	-263.98610	411.70732	-893.48767	-326.32957	99.49679	-903.73738	-388.23825	61.65110	-861.07406	-222.72126	42.23892	-959.74334	-177.70201	63.51417	-906.22871	-292.52424	331.94404	-436.95109	-347.97884	453.33540	-458.16614	-364.07999	341.85057	-438.04374	-352.55779	421.35682	-886.02897	-355.48902	300.47543	-908.02405	-278.07322	823.19301	-489.17115	-274.26599	712.40678	-478.66948	-331.40994	687.42989	-455.98340	-392.17288	816.65497	-488.20288	-382.07188	700.19082	-477.35303	-307.69769	772.12478	-894.23091	-280.75986	637.11225	-887.28107	-408.09625	752.90382	-835.74054	-377.92820	615.04957	-845.14740	-259.12730	973.97452	-552.15387	-441.32436	1021.99008	-637.79330	-250.54478	952.26516	-801.91341	-444.63973	1021.87899	-736.62405	-392.15543	1426.66087	-703.86490	-315.59214	1409.44313	-530.14248	-318.67228	1401.00261	-871.61831	-250.12577	1396.15898	-677.54872	-245.88208	1394.36811	-716.46521	-332.52372	1288.91742	-447.01370	-402.53714	1075.52899	-460.24642	-381.99308	1105.39449	-386.57914	-248.66570	1115.89368	-431.04691	-132.87745	1121.73509	-490.10402	-122.57434	1088.90596	-481.68777	-327.43598	1289.57198	-938.44811	-403.31169	1066.55071	-888.53648	-392.51534	1095.67212	-969.89289	-289.84088	1118.46213	-942.35911	-147.42719	1130.70635	-902.46606	-138.84741	1100.00762	-914.98529	-340.53867	898.92789	-573.42311	-335.76690	887.11512	-779.50054	-329.42323	894.86420	-584.32421	-334.97440	894.67845	-749.79054	
714	7.13000000	-310.99848	503.14917	-476.23100	-269.56193	440.07313	-475.91618	-334.38140	100.13203	-429.27274	-397.55488	61.55503	-470.47513	-235.79145	45.03522	-377.35231	-182.31679	69.84765	-428.26819	-298.33808	498.74779	-873.23894	-263.85959	411.65238	-893.50551	-326.29512	99.49791	-903.76819	-388.22542	61.65666	-861.08373	-222.71293	42.19776	-959.74413	-177.69147	63.48355	-906.24854	-292.54646	331.98491	-436.90106	-348.15013	453.29503	-458.11195	-364.15233	341.75042	-437.96216	-352.43199	421.34794	-886.14703	-355.36856	300.48553	-908.19715	-277.68834	823.20989	-488.64602	-274.03765	712.40113	-478.25664	-331.26527	687.51814	-455.72596	-391.91066	816.75046	-488.16335	-381.85829	700.44609	-477.19877	-307.74023	772.11644	-894.24185	-280.73876	637.11015	-887.54531	-407.86181	752.82585	-835.36461	-377.73002	615.19160	-845.12781	-258.81481	973.28731	-551.90156	-441.11353	1021.63957	-637.55266	-250.33956	951.43021	-801.94827	-444.22941	1021.51541	-736.76061	-391.73928	1426.69370	-703.97277	-315.09249	1409.14864	-530.20691	-318.34493	1400.49173	-872.02029	-249.75289	1395.81948	-677.79283	-245.72968	1393.33339	-717.19086	-332.41927	1288.78967	-447.20863	-402.08998	1075.17825	-460.42677	-381.72601	1105.15310	-386.69439	-248.29409	1115.49957	-430.99282	-132.43156	1121.29752	-489.56211	-122.11373	1088.37127	-481.14153	-327.33409	1288.74267	-938.23005	-403.31618	1065.87539	-887.75267	-392.51235	1094.85825	-969.19184	-289.71704	1117.39489	-942.10586	-147.13155	1129.21672	-902.77771	-138.80345	1098.35994	-915.14109	-340.45743	898.39472	-573.30497	-335.69129	886.49060	-779.37731	-329.49426	894.14248	-584.26468	-334.69813	893.93501	-749.93708	
715	7.14000000	-311.09284	503.22251	-476.00224	-269.61051	440.18576	-475.73685	-334.45118	100.07040	-429.38752	-397.70517	61.30735	-470.75067	-235.78952	45.04078	-377.34844	-182.27374	69.87754	-428.23805	-298.28674	498.77276	-873.44625	-263.70822	411.55629	-893.52514	-326.27356	99.49250	-903.79058	-388.21771	61.66056	-861.09475	-222.71510	42.17806	-959.75326	-177.68426	63.46232	-906.27854	-292.75431	332.01096	-436.58919	-348.13431	453.32938	-457.93513	-364.17222	341.67865	-437.76529	-352.28727	421.35595	-886.16899	-355.30891	300.49512	-908.26959	-277.65269	823.30970	-488.01991	-274.02791	712.36650	-477.67333	-331.36923	687.64019	-455.33747	-391.80121	816.91164	-488.11678	-381.78833	700.67189	-476.99267	-308.01027	772.10751	-894.40482	-280.88443	637.15127	-887.80466	-407.86055	752.79614	-835.22722	-377.67669	615.23188	-845.08550	-258.58391	972.79507	-551.73363	-440.95289	1021.44159	-637.48895	-250.21716	950.78963	-801.94647	-443.96745	1021.33770	-736.89784	-391.60358	1426.57238	-704.13128	-314.49491	1408.87924	-530.27616	-317.89494	1400.02235	-872.20845	-249.31245	1395.39344	-678.04185	-245.25598	1392.93725	-717.36037	-332.15091	1288.75565	-447.36654	-401.61622	1075.00951	-460.66999	-381.45886	1105.00759	-386.84365	-247.97495	1115.19732	-430.91157	-131.89904	1120.90492	-489.02999	-121.58539	1087.96383	-480.55902	-327.25280	1288.10318	-938.05297	-403.23523	1065.46358	-886.50133	-392.50543	1094.08595	-968.48659	-289.44345	1116.38103	-941.78632	-146.66675	1127.82633	-902.99686	-138.54052	1096.85687	-915.26356	-340.46421	898.05318	-573.23534	-335.68317	886.04276	-779.30113	-329.53254	893.60544	-584.21390	-334.56004	893.43202	-750.00754	
716	7.15000000	-311.10409	503.27498	-475.53719	-269.49699	440.20408	-475.46097	-334.46177	100.03522	-429.35279	-397.75600	61.20214	-470.89680	-235.78491	45.03675	-377.31726	-182.26724	69.84728	-428.18031	-298.27097	498.77402	-873.55926	-263.59717	411.48753	-893.59842	-326.24948	99.48331	-903.80246	-388.21184	61.66091	-861.10061	-222.71921	42.16925	-959.76300	-177.67784	63.45399	-906.30931	-292.98694	332.05560	-436.13509	-347.97358	453.39887	-457.58688	-364.17381	341.74217	-437.44214	-352.15834	421.38765	-886.14131	-355.28707	300.61981	-908.28899	-278.07880	823.71937	-487.21123	-274.25356	712.48423	-476.87597	-331.66032	687.77740	-454.86701	-391.86470	817.04997	-488.07010	-381.90727	700.73465	-476.79731	-308.54447	772.01435	-894.33823	-281.18492	637.21221	-888.03106	-408.10758	752.77982	-835.24346	-377.72891	615.19093	-844.97189	-258.49759	972.60647	-551.61997	-440.81588	1021.37820	-637.52321	-250.14294	950.41658	-801.98291	-443.90003	1021.33574	-736.91409	-391.47666	1426.45561	-704.29488	-313.81776	1408.61903	-530.31369	-317.32472	1399.65732	-872.26609	-248.85477	1394.98141	-678.17990	-244.68884	1392.55757	-717.31955	-331.86098	1288.78283	-447.47487	-401.09197	1074.97797	-460.87648	-381.26684	1104.93998	-387.01193	-247.64188	1114.91449	-430.84702	-131.29087	1120.52777	-488.54373	-121.06849	1087.64078	-480.09097	-327.10475	1287.61063	-937.90032	-402.85228	1065.15773	-885.39068	-392.41540	1093.44329	-967.68003	-289.03891	1115.48138	-941.41098	-146.12811	1126.60175	-903.15774	-138.10412	1095.60027	-915.43076	-340.49733	897.94258	-573.17995	-335.72088	885.81969	-779.23928	-329.44857	893.26537	-584.10817	-334.59655	893.19464	-750.00717	
717	7.16000000	-311.04775	503.32294	-474.97382	-269.17290	439.90429	-475.09981	-334.43800	100.05457	-429.17183	-397.70195	61.29101	-470.77550	-235.79270	45.01608	-377.28135	-182.28406	69.78066	-428.11614	-298.36262	498.77520	-873.64434	-263.57968	411.52956	-893.79363	-326.23554	99.47983	-903.80720	-388.21277	61.65238	-861.10604	-222.72157	42.16252	-959.77134	-177.67328	63.44813	-906.32881	-293.04231	332.13427	-435.81100	-347.78688	453.43911	-457.22615	-364.18198	341.82588	-437.07922	-352.10075	421.43900	-886.10915	-355.33212	300.77244	-908.27981	-278.79265	824.16777	-486.28968	-274.60286	712.76066	-475.95679	-332.01709	687.88363	-454.40585	-392.14903	817.01973	-488.05301	-382.22867	700.63077	-476.59497	-309.24976	771.93135	-894.26770	-281.59177	637.24413	-888.25141	-408.54834	752.69404	-835.25121	-377.91046	615.07775	-844.76805	-258.54604	972.57473	-551.54025	-440.77583	1021.39614	-637.49053	-250.14570	950.28709	-802.03095	-443.92931	1021.42617	-736.81069	-390.97741	1426.55372	-704.36587	-313.05655	1408.40121	-530.33518	-316.68220	1399.37242	-872.33299	-248.39228	1394.65489	-678.21805	-244.20092	1391.99231	-717.34067	-331.64192	1288.84665	-447.57017	-400.50307	1074.99309	-461.12792	-381.15339	1104.98340	-387.13817	-247.19538	1114.63378	-430.83536	-130.68982	1120.17897	-488.15381	-120.56700	1087.29882	-479.77275	-326.78326	1287.16745	-937.69768	-402.18842	1064.93603	-884.68515	-392.23475	1092.84138	-966.70571	-288.48806	1114.76800	-941.02636	-145.53860	1125.63774	-903.30607	-137.59776	1094.62251	-915.62009	-340.56049	897.93746	-573.12728	-335.81526	885.78568	-779.18564	-329.42935	893.08995	-584.04219	-334.69947	893.14021	-750.02800	
718	7.17000000	-310.99925	503.36535	-474.53885	-268.72936	439.38900	-474.80990	-334.48110	100.04696	-429.05727	-397.60118	61.48717	-470.48940	-235.80576	44.98969	-377.25885	-182.27594	69.76900	-428.08278	-298.64447	498.88845	-873.90590	-263.68782	411.62481	-894.01556	-326.24934	99.46228	-903.79182	-388.22621	61.63454	-861.11520	-222.72501	42.15404	-959.77344	-177.67910	63.44355	-906.33878	-292.83095	332.19934	-435.64567	-347.65306	453.44188	-457.00531	-364.15955	341.86529	-436.84832	-352.17739	421.49655	-886.07020	-355.50832	300.78150	-908.20058	-279.33969	824.23780	-485.49944	-274.92772	712.98836	-475.17783	-332.40396	687.92710	-453.98271	-392.59734	816.84704	-488.04192	-382.66847	700.46257	-476.39087	-310.01577	771.98877	-894.56511	-282.10720	637.20288	-888.40741	-409.08172	752.51754	-835.05515	-378.22914	614.94807	-844.48932	-258.64199	972.56932	-551.48797	-440.84601	1021.48850	-637.38856	-250.22807	950.36373	-802.03845	-444.00437	1021.49280	-736.61367	-390.28140	1426.74162	-704.33780	-312.26292	1408.28103	-530.40664	-316.03835	1399.14928	-872.45706	-247.92799	1394.39833	-678.25237	-243.78658	1391.52095	-717.41112	-331.42861	1288.85850	-447.66159	-399.87232	1074.98518	-461.53344	-381.02687	1105.12106	-387.29992	-246.68276	1114.45044	-430.78811	-130.13851	1119.94283	-487.86304	-120.03275	1087.02233	-479.48115	-326.29157	1286.79182	-937.54523	-401.53076	1064.80664	-884.08950	-391.95112	1092.40033	-965.99330	-287.83728	1114.26205	-940.78371	-144.90417	1124.94246	-903.42825	-137.05065	1093.91866	-915.73304	-340.63196	897.95395	-573.07729	-335.94229	885.87602	-779.14125	-329.55822	893.18609	-583.97705	-334.84261	893.19300	-749.99727	
719	7.18000000	-311.01456	503.41325	-474.25345	-268.40426	439.09722	-474.66977	-334.50724	100.07076	-429.01273	-397.57592	61.59472	-470.42247	-235.81468	44.97818	-377.25634	-182.25091	69.82168	-428.08695	-299.13684	499.13094	-874.32061	-263.93121	411.65554	-894.14079	-326.28715	99.43958	-903.79981	-388.24522	61.61213	-861.11600	-222.73687	42.15128	-959.77319	-177.69395	63.45636	-906.34358	-292.49970	332.20568	-435.56884	-347.52301	453.47294	-456.84986	-364.05613	341.99946	-436.79874	-352.41893	421.56410	-886.01164	-355.81037	300.71074	-908.07285	-279.81868	824.31945	-484.75235	-275.31864	713.00810	-474.57630	-332.90018	687.87725	-453.62604	-393.10491	816.64979	-488.03145	-383.12616	700.28593	-476.27485	-310.83290	772.16972	-895.11192	-282.77694	637.12346	-888.51076	-409.71940	752.32176	-834.82374	-378.67059	614.89999	-844.17038	-258.74842	972.59591	-551.44888	-440.93429	1021.61471	-637.30574	-250.37158	950.59361	-802.02700	-444.13504	1021.54605	-736.38748	-389.77207	1426.80497	-704.26942	-311.54053	1408.27658	-530.55431	-315.46407	1399.01012	-872.59317	-247.49833	1394.16740	-678.32436	-243.42555	1391.27552	-717.50228	-331.12625	1288.81467	-447.69457	-399.26711	1074.97594	-461.91812	-380.86957	1105.26107	-387.57402	-246.22706	1114.40466	-430.65506	-129.61017	1119.87899	-487.55967	-119.50002	1086.91376	-479.16999	-325.69835	1286.60049	-937.60639	-400.98262	1064.67855	-883.44117	-391.48796	1092.27391	-965.78590	-287.16693	1113.93979	-940.71875	-144.24002	1124.49860	-903.51258	-136.42495	1093.47244	-915.71865	-340.69258	897.99476	-573.05012	-336.07076	886.05005	-779.12338	-329.69547	893.45053	-583.86122	-335.05881	893.33529	-749.88452	
